# xmcd
# 
# Track frame offsets:
#     150
#     16994
#     37770
#     64140
#     85380
# 
# Disc length: 1443
# 
# Revision: 0
# Processed by: cddbd v1.5.2PL0 Copyright (c) Steve Scherf et al.
# Submitted via: BonkEnc v1.0.8
# 
DISCID=3305a105
DTITLE=高橋ちか - essence
DYEAR=2008
DGENRE=Pop
TTITLE0=光をあつめて
TTITLE1=オレンジ
TTITLE2=最後のナイフ
TTITLE3=愛の光
TTITLE4=青い鳥
EXTD=
EXTT0=
EXTT1=
EXTT2=
EXTT3=
EXTT4=
PLAYORDER=
